<svg xmlns="http://www.w3.org/2000/svg" xmlns:xlink="http://www.w3.org/1999/xlink" width="250.72" height="250.72" viewBox="0 0 250.72 250.72">
  <defs>
    <clipPath id="clip-path">
      <rect id="Rectangle_1510" data-name="Rectangle 1510" width="250.72" height="250.72" fill="#1c5ef9"/>
    </clipPath>
  </defs>
  <g id="Group_381" data-name="Group 381" clip-path="url(#clip-path)">
    <path id="Path_112" data-name="Path 112" d="M.1,124.769A124.4,124.4,0,0,1,80.525,8.522c58.342-22.165,118.552.112,152.528,52.818,4,6.207,4.076,12.951.573,19.436a18.591,18.591,0,0,1-16.971,9.567c-5.633-.117-10.825-4.489-14.382-9.851-8.2-12.354-18.33-22.9-31.1-30.6C118.314,18.03,51.336,47.373,38.161,109.858c-10.8,51.222,32.231,98.259,77.786,102.717,33.059,3.234,58.52-10.263,80.028-33.633,10.086-10.96,25.235-10.141,31.46,2.26,3.579,7.127,2.766,14.246-2.361,20.5-20.076,24.5-45.669,40.54-76.62,46.659-19.7,3.893-40.474,3.1-59.134-3.4-45.664-15.917-75.752-47.618-87.192-95.518A83.485,83.485,0,0,1,.168,136.865C-.161,132.858.1,128.8.1,124.769" transform="translate(0 0)" fill="#1c5ef9"/>
    <path id="Path_113" data-name="Path 113" d="M104.952,38.844c36.691.049,66.81,29.743,65.933,66.563-.984,41.362-31.633,65.211-68.8,66.673-33.041,1.3-63.153-32.675-63.1-69.018.047-34.949,30.167-64.267,65.974-64.218m37.27,37.788c.074-5.687-2.04-8.586-7.389-6.927-15.314,4.753-30.562,9.722-45.812,14.679-3.151,1.025-5.911,2.608-7.036,6.143-4.869,15.28-9.705,30.571-14.8,45.775a5.739,5.739,0,0,0,1.679,6.749c1.75,1.584,3.773,1.71,6.275.857,11.091-3.789,22.11-8.071,33.5-10.6,11.978-2.664,19.227-8.2,22.058-20.779,2.787-12.389,7.712-24.3,11.525-35.892" transform="translate(20.232 20.162)" fill="#1c5ef9"/>
    <path id="Path_115" data-name="Path 115" d="M77.783,83.993c.649-5.043,4.016-7.393,8.327-6.83,4.241.553,7.522,3.729,6.772,8.449-.787,4.963-4.389,6.773-9.456,6.35-5.452-.457-5.185-4.388-5.643-7.969" transform="translate(40.374 40.009)" fill="#1c5ef9"/>
  </g>
</svg>
