<svg xmlns="http://www.w3.org/2000/svg" xmlns:xlink="http://www.w3.org/1999/xlink" width="78.756" height="83.612" viewBox="0 0 78.756 83.612">
  <defs>
    <clipPath id="clip-path">
      <rect id="Rectangle_1510" data-name="Rectangle 1510" width="78.756" height="83.612" fill="none"/>
    </clipPath>
  </defs>
  <g id="Group_381" data-name="Group 381" clip-path="url(#clip-path)">
    <path id="Path_112" data-name="Path 112" d="M.033,41.609A41.486,41.486,0,0,1,26.854,2.842C46.311-4.55,66.39,2.879,77.721,20.456a6.066,6.066,0,0,1,.191,6.482,6.2,6.2,0,0,1-5.66,3.19c-1.878-.039-3.61-1.5-4.8-3.285a32.847,32.847,0,0,0-10.373-10.2c-17.626-10.627-39.963-.841-44.356,20C9.126,53.718,23.476,69.4,38.668,70.891c11.025,1.079,19.516-3.422,26.688-11.216,3.364-3.655,8.415-3.382,10.491.754a5.959,5.959,0,0,1-.787,6.837,43.222,43.222,0,0,1-25.552,15.56,38.011,38.011,0,0,1-19.72-1.135C14.56,76.383,4.526,65.811.711,49.837a27.841,27.841,0,0,1-.654-4.194c-.11-1.336-.024-2.688-.024-4.034" transform="translate(0 0)" fill="#fdfdfe"/>
    <path id="Path_113" data-name="Path 113" d="M60.98,38.844a21.849,21.849,0,0,1,21.988,22.2c-.328,13.794-10.549,21.747-22.945,22.235C49,83.71,38.962,72.38,38.978,60.26c.016-11.655,10.06-21.432,22-21.416m12.429,12.6c.025-1.9-.68-2.863-2.464-2.31-5.107,1.585-10.192,3.242-15.278,4.9A3.211,3.211,0,0,0,53.32,56.08c-1.624,5.1-3.237,10.2-4.937,15.265a1.976,1.976,0,0,0,2.652,2.536,106.675,106.675,0,0,1,11.173-3.536c3.994-.889,6.412-2.735,7.356-6.93.93-4.132,2.572-8.1,3.843-11.97" transform="translate(-19.232 -19.166)" fill="#fdfdfe"/>
    <path id="Path_115" data-name="Path 115" d="M77.783,79.386a2.35,2.35,0,0,1,2.777-2.278,2.411,2.411,0,0,1,2.258,2.818c-.262,1.655-1.464,2.259-3.154,2.118-1.818-.152-1.729-1.464-1.882-2.658" transform="translate(-38.379 -38.033)" fill="#fdfdfe"/>
  </g>
</svg>
